<svg width="70" height="70" viewBox="0 0 70 70" fill="none" xmlns="http://www.w3.org/2000/svg">
<path d="M60 0H10C4.47715 0 0 4.47715 0 10V60C0 65.5229 4.47715 70 10 70H60C65.5229 70 70 65.5229 70 60V10C70 4.47715 65.5229 0 60 0Z" fill="#F3FCF7"/>
<path d="M30.548 30.55C31.002 30.0952 31.311 29.5161 31.4359 28.8858C31.5609 28.2556 31.4962 27.6024 31.2501 27.0088C31.0039 26.4153 30.5874 25.908 30.053 25.5511C29.5187 25.1943 28.8905 25.0038 28.248 25.0038C27.6054 25.0038 26.9773 25.1943 26.4429 25.5511C25.9086 25.908 25.492 26.4153 25.2459 27.0088C24.9998 27.6024 24.9351 28.2556 25.06 28.8858C25.185 29.5161 25.494 30.0952 25.948 30.55C26.2498 30.8523 26.6084 31.0922 27.003 31.2559C27.3977 31.4195 27.8207 31.5038 28.248 31.5038C28.6752 31.5038 29.0983 31.4195 29.493 31.2559C29.8876 31.0922 30.2461 30.8523 30.548 30.55ZM43.548 38.95C43.0933 38.496 42.5141 38.187 41.8839 38.062C41.2536 37.9371 40.6004 38.0017 40.0068 38.2479C39.4133 38.494 38.906 38.9106 38.5491 39.4449C38.1923 39.9793 38.0018 40.6074 38.0018 41.25C38.0018 41.8925 38.1923 42.5207 38.5491 43.055C38.906 43.5894 39.4133 44.0059 40.0068 44.2521C40.6004 44.4982 41.2536 44.5629 41.8839 44.4379C42.5141 44.313 43.0933 44.004 43.548 43.55C43.8503 43.2481 44.0902 42.8896 44.2539 42.4949C44.4176 42.1003 44.5018 41.6772 44.5018 41.25C44.5018 40.8227 44.4176 40.3997 44.2539 40.005C44.0902 39.6104 43.8503 39.2518 43.548 38.95ZM43.448 27.198L42.3 26.05C42.1491 25.8987 41.9699 25.7786 41.7725 25.6967C41.5752 25.6148 41.3636 25.5727 41.15 25.5727C40.9363 25.5727 40.7248 25.6148 40.5274 25.6967C40.3301 25.7786 40.1509 25.8987 40 26.05L26.051 40.003C25.8997 40.1538 25.7796 40.3331 25.6977 40.5304C25.6158 40.7278 25.5737 40.9393 25.5737 41.153C25.5737 41.3666 25.6158 41.5782 25.6977 41.7755C25.7796 41.9729 25.8997 42.1521 26.051 42.303L27.2 43.45C27.3509 43.6013 27.5301 43.7213 27.7274 43.8032C27.9248 43.8851 28.1363 43.9273 28.35 43.9273C28.5636 43.9273 28.7752 43.8851 28.9725 43.8032C29.1699 43.7213 29.3491 43.6013 29.5 43.45L43.449 29.497C43.6003 29.3461 43.7203 29.1669 43.8022 28.9695C43.8841 28.7722 43.9263 28.5606 43.9263 28.347C43.9263 28.1333 43.8841 27.9218 43.8022 27.7244C43.7203 27.5271 43.6003 27.3478 43.449 27.197L43.448 27.198Z" fill="#06C167"/>
</svg>
