<svg width="100" height="15" viewBox="0 0 100 15" fill="none" xmlns="http://www.w3.org/2000/svg">
<path d="M5.39519 4.77251L5.65525 4.73456L5.77146 4.49883L7.63019 0.72839C7.63023 0.728306 7.63027 0.728221 7.63031 0.728136C7.66437 0.659387 7.71695 0.601512 7.78212 0.561032C7.84738 0.520501 7.92267 0.499023 7.9995 0.499023C8.07632 0.499023 8.15161 0.520501 8.21686 0.561031C8.28212 0.601562 8.33475 0.659531 8.3688 0.728391L10.2328 4.49836L10.3491 4.73362L10.6088 4.77151L14.7662 5.37813C14.7666 5.37818 14.7669 5.37823 14.7673 5.37829C14.8427 5.3899 14.9134 5.42223 14.9716 5.47168C15.03 5.52137 15.0733 5.58637 15.0968 5.65937C15.1203 5.73238 15.1229 5.81048 15.1044 5.8849C15.0859 5.95932 15.047 6.02709 14.9921 6.0806L14.9921 6.08065L11.9821 9.01365L11.7935 9.19741L11.8383 9.45688L12.5541 13.5998C12.5541 13.5999 12.5542 13.6001 12.5542 13.6002C12.567 13.6756 12.5584 13.7531 12.5296 13.8239C12.5007 13.8949 12.4526 13.9563 12.3906 14.0014C12.3286 14.0464 12.2553 14.0732 12.1789 14.0788C12.1024 14.0844 12.026 14.0685 11.9581 14.0329L8.23659 12.0771L8.00399 11.9549L7.7714 12.0771L4.04985 14.0329C3.982 14.0685 3.90555 14.0844 3.82914 14.0788C3.75272 14.0732 3.67939 14.0464 3.61741 14.0014C3.55544 13.9563 3.50728 13.8949 3.47838 13.8239C3.44952 13.753 3.44102 13.6755 3.45384 13.6C3.45385 13.5999 3.45387 13.5999 3.45388 13.5998L4.16577 9.45743L4.21032 9.19821L4.02194 9.01464L1.01194 6.08165L1.0119 6.0816C0.956968 6.02809 0.918065 5.96032 0.899563 5.8859C0.88106 5.81148 0.883694 5.73338 0.907167 5.66038C0.930641 5.58737 0.974022 5.52237 1.03243 5.47268C1.09057 5.42323 1.16129 5.3909 1.23671 5.37929C1.23707 5.37923 1.23742 5.37918 1.23777 5.37913L5.39519 4.77251Z" fill="#06C167" stroke="#06C167"/>
<path d="M26.3952 4.77251L26.6553 4.73456L26.7715 4.49883L28.6302 0.72839C28.6302 0.728306 28.6303 0.728221 28.6303 0.728136C28.6644 0.659387 28.7169 0.601512 28.7821 0.561032C28.8474 0.520501 28.9227 0.499023 28.9995 0.499023C29.0763 0.499023 29.1516 0.520501 29.2169 0.561031C29.2821 0.601562 29.3348 0.659531 29.3688 0.728391L31.2328 4.49836L31.3491 4.73362L31.6088 4.77151L35.7662 5.37813C35.7666 5.37818 35.7669 5.37823 35.7673 5.37829C35.8427 5.3899 35.9134 5.42223 35.9716 5.47168C36.03 5.52137 36.0733 5.58637 36.0968 5.65937C36.1203 5.73238 36.1229 5.81048 36.1044 5.8849C36.0859 5.95932 36.047 6.02709 35.9921 6.0806L35.9921 6.08065L32.9821 9.01365L32.7935 9.19741L32.8383 9.45688L33.5541 13.5998C33.5541 13.5999 33.5542 13.6001 33.5542 13.6002C33.567 13.6756 33.5584 13.7531 33.5296 13.8239C33.5007 13.8949 33.4526 13.9563 33.3906 14.0014C33.3286 14.0464 33.2553 14.0732 33.1789 14.0788C33.1024 14.0844 33.026 14.0685 32.9581 14.0329L29.2366 12.0771L29.004 11.9549L28.7714 12.0771L25.0499 14.0329C24.982 14.0685 24.9055 14.0844 24.8291 14.0788C24.7527 14.0732 24.6794 14.0464 24.6174 14.0014C24.5554 13.9563 24.5073 13.8949 24.4784 13.8239C24.4495 13.753 24.441 13.6755 24.4538 13.6C24.4539 13.5999 24.4539 13.5999 24.4539 13.5998L25.1658 9.45743L25.2103 9.19821L25.0219 9.01464L22.0119 6.08165L22.0119 6.0816C21.957 6.02809 21.9181 5.96032 21.8996 5.8859C21.8811 5.81148 21.8837 5.73338 21.9072 5.66038C21.9306 5.58737 21.974 5.52237 22.0324 5.47268C22.0906 5.42323 22.1613 5.3909 22.2367 5.37929C22.2371 5.37923 22.2374 5.37918 22.2378 5.37913L26.3952 4.77251Z" fill="#06C167" stroke="#06C167"/>
<path d="M47.3952 4.77251L47.6553 4.73456L47.7715 4.49883L49.6302 0.72839C49.6302 0.728306 49.6303 0.728221 49.6303 0.728136C49.6644 0.659387 49.7169 0.601512 49.7821 0.561032C49.8474 0.520501 49.9227 0.499023 49.9995 0.499023C50.0763 0.499023 50.1516 0.520501 50.2169 0.561031C50.2821 0.601562 50.3348 0.659531 50.3688 0.728391L52.2328 4.49836L52.3491 4.73362L52.6088 4.77151L56.7662 5.37813C56.7666 5.37818 56.7669 5.37823 56.7673 5.37829C56.8427 5.3899 56.9134 5.42223 56.9716 5.47168C57.03 5.52137 57.0733 5.58637 57.0968 5.65937C57.1203 5.73238 57.1229 5.81048 57.1044 5.8849C57.0859 5.95932 57.047 6.02709 56.9921 6.0806L56.9921 6.08065L53.9821 9.01365L53.7935 9.19741L53.8383 9.45688L54.5541 13.5998C54.5541 13.5999 54.5542 13.6001 54.5542 13.6002C54.567 13.6756 54.5584 13.7531 54.5296 13.8239C54.5007 13.8949 54.4526 13.9563 54.3906 14.0014C54.3286 14.0464 54.2553 14.0732 54.1789 14.0788C54.1024 14.0844 54.026 14.0685 53.9581 14.0329L50.2366 12.0771L50.004 11.9549L49.7714 12.0771L46.0499 14.0329C45.982 14.0685 45.9055 14.0844 45.8291 14.0788C45.7527 14.0732 45.6794 14.0464 45.6174 14.0014C45.5554 13.9563 45.5073 13.8949 45.4784 13.8239C45.4495 13.753 45.441 13.6755 45.4538 13.6C45.4539 13.5999 45.4539 13.5999 45.4539 13.5998L46.1658 9.45743L46.2103 9.19821L46.0219 9.01464L43.0119 6.08165L43.0119 6.0816C42.957 6.02809 42.9181 5.96032 42.8996 5.8859C42.8811 5.81148 42.8837 5.73338 42.9072 5.66038C42.9306 5.58737 42.974 5.52237 43.0324 5.47268C43.0906 5.42323 43.1613 5.3909 43.2367 5.37929C43.2371 5.37923 43.2374 5.37918 43.2378 5.37913L47.3952 4.77251Z" fill="#06C167" stroke="#06C167"/>
<path d="M68.3952 4.77251L68.6553 4.73456L68.7715 4.49883L70.6302 0.72839C70.6302 0.728306 70.6303 0.728221 70.6303 0.728136C70.6644 0.659387 70.7169 0.601512 70.7821 0.561032C70.8474 0.520501 70.9227 0.499023 70.9995 0.499023C71.0763 0.499023 71.1516 0.520501 71.2169 0.561031C71.2821 0.601562 71.3348 0.659531 71.3688 0.728391L73.2328 4.49836L73.3491 4.73362L73.6088 4.77151L77.7662 5.37813C77.7666 5.37818 77.7669 5.37823 77.7673 5.37829C77.8427 5.3899 77.9134 5.42223 77.9716 5.47168C78.03 5.52137 78.0733 5.58637 78.0968 5.65937C78.1203 5.73238 78.1229 5.81048 78.1044 5.8849C78.0859 5.95932 78.047 6.02709 77.9921 6.0806L77.9921 6.08065L74.9821 9.01365L74.7935 9.19741L74.8383 9.45688L75.5541 13.5998C75.5541 13.5999 75.5542 13.6001 75.5542 13.6002C75.567 13.6756 75.5584 13.7531 75.5296 13.8239C75.5007 13.8949 75.4526 13.9563 75.3906 14.0014C75.3286 14.0464 75.2553 14.0732 75.1789 14.0788C75.1024 14.0844 75.026 14.0685 74.9581 14.0329L71.2366 12.0771L71.004 11.9549L70.7714 12.0771L67.0499 14.0329C66.982 14.0685 66.9055 14.0844 66.8291 14.0788C66.7527 14.0732 66.6794 14.0464 66.6174 14.0014C66.5554 13.9563 66.5073 13.8949 66.4784 13.8239C66.4495 13.753 66.441 13.6755 66.4538 13.6C66.4539 13.5999 66.4539 13.5999 66.4539 13.5998L67.1658 9.45743L67.2103 9.19821L67.0219 9.01464L64.0119 6.08165L64.0119 6.0816C63.957 6.02809 63.9181 5.96032 63.8996 5.8859C63.8811 5.81148 63.8837 5.73338 63.9072 5.66038C63.9306 5.58737 63.974 5.52237 64.0324 5.47268C64.0906 5.42323 64.1613 5.3909 64.2367 5.37929C64.2371 5.37923 64.2374 5.37918 64.2378 5.37913L68.3952 4.77251Z" fill="#06C167" stroke="#06C167"/>
<path d="M89.3952 4.77251L89.6553 4.73456L89.7715 4.49883L91.6302 0.72839C91.6302 0.728306 91.6303 0.728221 91.6303 0.728136C91.6644 0.659387 91.7169 0.601512 91.7821 0.561032C91.8474 0.520501 91.9227 0.499023 91.9995 0.499023C92.0763 0.499023 92.1516 0.520501 92.2169 0.561031C92.2821 0.601562 92.3348 0.659531 92.3688 0.728391L94.2328 4.49836L94.3491 4.73362L94.6088 4.77151L98.7662 5.37813C98.7666 5.37818 98.7669 5.37823 98.7673 5.37829C98.8427 5.3899 98.9134 5.42223 98.9716 5.47168C99.03 5.52137 99.0733 5.58637 99.0968 5.65937C99.1203 5.73238 99.1229 5.81048 99.1044 5.8849C99.0859 5.95932 99.047 6.02709 98.9921 6.0806L98.9921 6.08065L95.9821 9.01365L95.7935 9.19741L95.8383 9.45688L96.5541 13.5998C96.5541 13.5999 96.5542 13.6001 96.5542 13.6002C96.567 13.6756 96.5584 13.7531 96.5296 13.8239C96.5007 13.8949 96.4526 13.9563 96.3906 14.0014C96.3286 14.0464 96.2553 14.0732 96.1789 14.0788C96.1024 14.0844 96.026 14.0685 95.9581 14.0329L92.2366 12.0771L92.004 11.9549L91.7714 12.0771L88.0499 14.0329C87.982 14.0685 87.9055 14.0844 87.8291 14.0788C87.7527 14.0732 87.6794 14.0464 87.6174 14.0014C87.5554 13.9563 87.5073 13.8949 87.4784 13.8239C87.4495 13.753 87.441 13.6755 87.4538 13.6C87.4539 13.5999 87.4539 13.5999 87.4539 13.5998L88.1658 9.45743L88.2103 9.19821L88.0219 9.01464L85.0119 6.08165L85.0119 6.0816C84.957 6.02809 84.9181 5.96032 84.8996 5.8859C84.8811 5.81148 84.8837 5.73338 84.9072 5.66038C84.9306 5.58737 84.974 5.52237 85.0324 5.47268C85.0906 5.42323 85.1613 5.3909 85.2367 5.37929C85.2371 5.37923 85.2374 5.37918 85.2378 5.37913L89.3952 4.77251Z" fill="#06C167" stroke="#06C167"/>
</svg>
